<svg width="1928" height="578" viewBox="0 0 1928 578" fill="none" xmlns="http://www.w3.org/2000/svg">
<path fill-rule="evenodd" clip-rule="evenodd" d="M422.363 9.00638C426.242 17.72 427.121 29.4784 424.336 35.4C423.715 36.72 421.314 42.0032 419.001 47.1408C415.694 54.4832 412.796 57.9936 405.453 63.5536C384.38 79.5056 358.932 81.9056 321.026 71.5136C286.755 62.12 260.195 62.0592 242.115 71.3328C234.989 74.9888 237.198 71.12 246.546 63.576C265.337 48.4096 288.375 40.616 308.578 42.592C314.569 43.1776 327.171 46.2672 336.585 49.4576C356.667 56.264 370.306 57.1264 380.813 52.2528L387.218 49.2832L382.905 47.2288C376.276 44.0704 359.081 37.0384 352.144 34.648C329.247 26.76 293.626 20.912 270.19 21.192C252.86 21.4 253.789 21.9664 278.238 26.1024L289.908 28.0752L277.46 29.1744C264.34 30.3328 254.341 33.3696 247.407 38.304C239.893 43.6496 238.459 43.7664 244.009 38.5808L249.454 33.4912L243.581 37.0016C240.312 38.9536 236.57 40.0624 235.148 39.5008C233.74 38.9456 232.182 39.1248 231.686 39.8992C231.19 40.6736 228.857 41.792 226.505 42.384C223.219 43.2112 222.226 42.8816 222.226 40.968C222.226 38.9152 221.842 38.8384 220.059 40.5376C218.226 42.2816 218.675 43.7104 222.976 49.8C238.926 72.3904 243.649 101.867 235.412 127.4C234.586 129.96 234.709 130.122 236.024 128.203C237.463 126.106 238.4 126.205 243.561 129.003C250.095 132.547 264.685 147.15 269.136 154.6C271.13 157.938 272.005 158.547 272.009 156.6C272.012 155.059 272.665 153.8 273.459 153.8C275.872 153.8 276.952 170.086 275.103 178.6C274.148 183 272.763 190.2 272.026 194.6C270.502 203.699 270.305 233.523 271.809 227.4C273.465 220.666 276.289 222.205 281.411 232.629C287.171 244.352 296.598 257.378 304.5 264.531C307.6 267.336 308.908 269.152 307.412 268.566C305.915 267.979 304.689 268.198 304.689 269.05C304.689 269.902 305.384 270.6 306.234 270.6C307.085 270.6 311.81 276.901 316.736 284.6C321.664 292.301 326.684 299.397 327.896 300.373C329.754 301.867 329.631 302.448 327.118 304.082C324.41 305.843 324.494 305.931 328.027 305.048C338.393 302.456 341.367 302.534 345.629 305.504L350.004 308.555L341.739 314.019C337.193 317.026 326.585 323.002 318.166 327.299C298.244 337.472 281.291 353.381 272.92 369.76C269.762 375.942 267.652 381 268.231 381C268.81 381 273.86 376.598 279.452 371.219C289.733 361.328 304.555 350.6 307.936 350.6C308.947 350.6 307.925 352.098 305.661 353.928C303.399 355.758 302.013 358.03 302.58 358.976C303.169 359.954 302.888 360.234 301.93 359.624C301.004 359.035 298.271 360.368 295.854 362.584C293.253 364.973 292.573 366.216 294.186 365.637C295.683 365.098 296.898 365.275 296.886 366.029C296.845 368.288 294.739 370.771 291.974 371.819C290.29 372.456 289.657 373.93 290.181 375.99C290.72 378.106 289.895 379.88 287.726 381.274C285.931 382.426 284.462 384.04 284.462 384.861C284.462 385.68 283.236 389.118 281.739 392.501C279.748 396.997 278.26 398.462 276.205 397.95C273.927 397.384 273.742 397.685 275.228 399.526C276.695 401.344 276.518 401.8 274.344 401.8C272.121 401.8 271.799 402.746 272.572 407C273.295 410.976 273.144 411.549 271.929 409.432C271.055 407.91 270.191 403.12 270.011 398.786C269.829 394.453 269.065 391.298 268.31 391.776C267.557 392.256 267.394 397.661 267.948 403.789L268.954 414.93L264.142 410.765C261.495 408.474 258.629 406.6 257.774 406.6C256.918 406.6 258.401 408.49 261.069 410.798C266.015 415.078 266.614 418.579 262.409 418.626C261.125 418.64 258.889 419.869 257.442 421.358C255.994 422.846 253.78 423.658 252.521 423.162C251.091 422.597 250.232 423.222 250.232 424.829C250.232 426.243 249.532 427.4 248.676 427.4C246.568 427.4 246.7 426.394 249.658 419.984C251.054 416.96 251.878 414.16 251.493 413.763C251.105 413.365 247.813 418.886 244.174 426.034C235.636 442.803 231.628 461.128 231.628 483.4C231.628 497.704 232.294 502.221 236.112 513.8C238.58 521.28 240.425 527.587 240.212 527.816C239.822 528.24 236.509 520.435 233.068 510.981C231.216 505.891 221.243 493.342 219.782 494.261C217.107 495.941 211.335 486.28 211.335 480.125C211.335 478.406 210.708 477 209.942 477C207.99 477 206.862 490.008 208.519 493.4C209.329 495.056 209.304 496.2 208.461 496.2C205.628 496.2 193.694 475.018 189.722 462.942L185.662 450.6L172.437 451.502C164.219 452.062 161.991 452.517 166.554 452.702C172.372 452.938 173.71 453.498 173.001 455.4C172.507 456.72 172.904 457.8 173.881 457.8C175.196 457.8 175.182 458.717 173.825 461.323C172.459 463.949 172.445 465.003 173.771 465.458C175.946 466.203 176.111 474.531 174.031 478.528C172.814 480.867 173.2 481.686 175.975 482.65C179.195 483.766 179.111 483.904 174.771 484.587C169.224 485.462 106.186 481.946 102.585 480.562C100.465 479.746 100.396 479.99 102.123 482.176C105.132 485.984 112.434 486.774 156.175 488.019L195.882 489.15L199.782 493.475C201.926 495.854 204.394 497.8 205.265 497.8C206.138 497.8 206.418 498.52 205.889 499.4C205.36 500.28 203.569 501 201.908 501C197.559 501 198.131 504.928 204.358 517.8C207.338 523.96 209.776 529.098 209.777 529.218C209.779 529.339 206.454 529.984 202.388 530.653L194.998 531.869L209.779 535.562C217.908 537.594 225.844 539.288 227.413 539.328C228.983 539.368 234.107 543.179 238.8 547.8C247.527 556.394 272.709 571.4 278.4 571.4C280.124 571.4 281.106 572.112 280.583 572.982C280.06 573.851 280.585 574.187 281.749 573.728C282.912 573.269 288.375 573.987 293.888 575.323C309.265 579.05 317.618 578.434 334.658 572.31C363.404 561.984 375.2 552.72 394.904 525C402.99 513.626 406.139 510.557 414.143 506.253C425.96 499.899 435.954 491.507 431.779 491.443C430.225 491.419 426.698 493.17 423.941 495.333C416.273 501.346 385.02 516.253 368.481 521.786C350.493 527.802 334.644 531.4 326.129 531.4C320.179 531.4 319.924 531.218 322.196 528.6C323.532 527.059 325.412 522.766 326.372 519.059C327.332 515.35 329.549 511.286 331.298 510.026C335.015 507.347 333.6 505.939 327.858 506.6C325.626 506.858 322.826 506.434 321.634 505.659C320.444 504.883 320.241 504.238 321.184 504.224C322.127 504.211 325.057 502.078 327.696 499.486C338.105 489.256 358.831 482.71 388.776 480.194C413.328 478.131 427.393 474.992 436.503 469.544C446.599 463.504 466.686 441.934 472.534 430.851C475.161 425.874 477.33 422.973 477.351 424.405C477.412 428.171 473.543 437.102 469.642 442.2C467.79 444.621 466.647 446.6 467.101 446.6C468.245 446.6 454.612 459.315 446.99 465.355C443.532 468.096 433.046 474.718 423.687 480.069C403.308 491.723 403.309 491.971 423.715 484.115C428.881 482.126 430.716 482.003 430.716 483.65C430.716 484.51 432.117 484.806 433.828 484.307C435.54 483.808 438.51 482.936 440.428 482.37C443.56 481.443 443.694 481.614 441.735 484.042C440.536 485.53 438.726 486.419 437.716 486.021C436.707 485.622 434.892 485.949 433.687 486.749C431.816 487.986 431.837 488.426 433.819 489.736C435.544 490.875 437.435 489.984 441.149 486.282C443.901 483.538 445.717 480.565 445.182 479.675C444.59 478.691 445.264 478.472 446.899 479.118C448.986 479.941 449.39 479.53 448.696 477.283C448.119 475.41 449.213 473.024 451.793 470.531C454.685 467.736 455.5 467.435 454.754 469.438C454.186 470.957 454.038 472.2 454.422 472.2C455.953 472.2 488.193 434.142 498.954 419.634C525.284 384.134 538.982 355.877 584 244.2C637.148 112.357 632 124.134 636.26 124.656C643.167 125.504 666.194 129.819 666.726 130.366C667.017 130.664 665.494 135.715 663.344 141.59C658.366 155.19 658.326 161.896 663.185 167.71C666.891 172.147 667.179 172.206 687.416 172.73C706.93 173.234 708.295 173.059 716.3 169.032C720.921 166.707 727.165 161.845 730.177 158.226C735.361 151.997 745.008 129.77 745.008 124.053C745.008 122.595 748.132 118.574 751.952 115.117C756.035 111.422 760.88 104.69 763.708 98.7808C770.256 85.104 770.543 68.6208 764.471 54.9808C762.244 49.9792 759.279 44.5888 757.881 43C755.459 40.248 755.257 40.3248 753.475 44.6816C750.44 52.1024 741.946 60.92 733.683 65.2256C707.366 78.9392 666.382 76.3072 592.53 56.1568C576.699 51.8368 558.845 47.4896 552.855 46.4944C528.547 42.4608 486.523 45.1312 464.168 52.1296C453.339 55.52 452.768 55.36 451.632 48.6C449.817 37.784 438.686 16.2432 430.636 7.96318C420.16 -2.80802 417.264 -2.44322 422.363 9.00638ZM2.3667 6.74078C3.91326 9.45918 7.31447 13.9584 9.92371 16.7408C12.5345 19.5232 15.1437 23.0736 15.721 24.632C17.4838 29.376 28.7112 45.3296 36.2464 53.8C40.161 58.2 44.7494 64.68 46.4438 68.2C48.1381 71.72 53.7254 79.5008 58.8583 85.4928C63.9912 91.4832 68.1921 97.1104 68.1921 97.9968C68.1921 98.8832 64.738 103.067 60.5169 107.294L52.8432 114.982L51.2359 110.792C50.3522 108.486 49.179 104.621 48.6282 102.2C46.618 93.3552 43.2977 98.2832 43.2977 110.114C43.2977 118.53 48.0884 128.47 53.6102 131.509C55.6391 132.627 57.3008 134.181 57.3008 134.965C57.3008 135.749 56.6349 135.966 55.8212 135.448C55.0074 134.931 51.838 134.411 48.7792 134.293C42.1993 134.038 36.097 128.542 34.2486 121.208C33.4007 117.845 32.7192 117.054 32.0984 118.717C30.6467 122.61 35.0079 133.456 39.7332 137.702C42.8247 140.48 43.1795 141.224 40.9639 140.288C39.2524 139.565 36.6432 139.022 35.1635 139.085C31.9179 139.219 26.1828 132.131 26.1828 127.984C26.1828 122.6 23.5129 124.861 21.677 131.8C17.8572 146.238 18.2384 155.29 23.3107 170.498L28.0779 184.797L23.32 200.898C12.0071 239.189 10.0964 251.622 10.3967 285C10.6581 313.93 14.1729 337.846 21.3922 359.827C27.3062 377.834 36.0721 398.773 41.3497 407.502L45.2815 414.006L72.6855 418.318C87.756 420.691 111.641 424.077 125.76 425.845C159.2 430.029 173.612 431.986 179.828 433.182L184.884 434.157V423.635C184.884 406.936 189.947 384.368 201.808 348.2C207.868 329.72 213.787 310.675 214.962 305.88C216.135 301.083 217.901 296.883 218.884 296.546C219.996 296.165 220.323 297.042 219.746 298.866C219.214 300.555 219.377 301.122 220.135 300.2C220.857 299.32 224.141 297.318 227.432 295.754C231.734 293.706 233.15 292.195 232.47 290.374C231.762 288.475 232.198 288.109 234.219 288.907C235.7 289.491 236.431 289.474 235.843 288.869C235.255 288.264 237.727 285.45 241.339 282.614C244.95 279.779 251.054 273.013 254.903 267.578C261.8 257.84 269.751 241.774 267.647 241.827C267.055 241.842 264.974 245.646 263.025 250.282C257.498 263.419 247.155 275.675 233.895 284.794C227.326 289.314 220.087 293.477 217.809 294.046C207.577 296.605 177.975 312.997 161.84 325.038C139.183 341.946 126.745 345.752 109.886 340.936C93.9687 336.39 80.2208 317.31 80.4215 300.045C80.5553 288.494 82.5935 282.302 91.1556 267.429C101.792 248.95 105.611 240.704 111.171 224.2C113.987 215.84 116.322 210.259 116.358 211.8C116.395 213.341 116.753 214.6 117.155 214.6C119.292 214.6 131.836 207.038 135.874 203.318C149.074 191.15 155.791 183.981 153.158 184.875C150.673 185.717 150.519 185.496 152.167 183.454C153.241 182.123 154.848 181.499 155.739 182.066C156.679 182.662 156.894 182.32 156.248 181.248C155.638 180.232 155.618 178.603 156.203 177.629C156.979 176.338 157.558 176.342 158.342 177.646C159.053 178.829 160.507 178.21 162.637 175.818C166.522 171.451 168.7 165 166.287 165C163.923 165 170.454 152.269 173.416 151.099C175.015 150.467 175.238 149.79 174.083 149.058C172.843 148.269 172.945 146.526 174.446 142.854C175.594 140.045 177.125 138.299 177.847 138.973C178.569 139.648 178.695 139.365 178.127 138.344C176.719 135.814 178.636 131.125 180.777 131.859C181.731 132.186 183.685 129.755 185.119 126.458C187.453 121.099 187.497 119.64 185.529 112.731C184.318 108.478 182.803 94.2 182.16 81L180.995 57L168.548 69.6608C161.702 76.624 158.195 80.584 160.754 78.4608C163.315 76.3376 165.903 73.9008 166.505 73.0464C167.107 72.192 168.068 71.9744 168.641 72.5616C169.212 73.1504 168.131 76.2096 166.237 79.3616C163.295 84.2576 163.099 85.4768 164.893 87.744C166.682 90.0064 166.646 90.2704 164.658 89.5312C163.365 89.0512 160.591 90.4384 158.434 92.6464C155.374 95.7776 155.164 96.4064 157.445 95.5936C160.048 94.6656 160.233 95.1744 159.259 100.581C158.663 103.891 157.529 106.842 156.738 107.136C155.949 107.432 155.699 108.331 156.183 109.136C156.667 109.941 156.32 110.6 155.414 110.6C154.509 110.6 153.767 112.24 153.767 114.243C153.767 118.102 149.88 124.939 146.469 127.08C145.349 127.784 144.431 129.806 144.431 131.574C144.431 133.342 145.131 134.344 145.987 133.8C146.843 133.256 147.543 133.195 147.543 133.664C147.543 134.134 145.617 135.6 143.264 136.922C137.375 140.229 129.865 147.354 131.016 148.539C131.539 149.075 133.544 148.144 135.475 146.469C138.733 143.642 138.718 143.734 135.259 147.762C133.208 150.149 130.934 151.722 130.202 151.256C129.471 150.792 128.872 151.216 128.872 152.2C128.872 153.184 128.063 153.475 127.075 152.848C125.967 152.142 125.701 152.408 126.381 153.539C127.859 155.998 109.07 168.197 103.978 168.083C100.441 168.003 100.583 167.765 105.534 165.469C118.214 159.587 121.435 157.658 122.759 155.149C123.834 153.112 122.088 153.525 115.235 156.928C103.178 162.914 101.484 163.366 89.8471 163.71C81.3597 163.962 78.9558 163.398 74.6973 160.162C69.9581 156.558 69.8383 156.237 72.8038 155.109C77.9912 153.134 76.4041 152.434 70.137 153.93C62.3528 155.789 50.8578 155.722 47.9654 153.8C46.2882 152.685 47.8363 152.242 53.4733 152.224C74.0796 152.16 99.808 140.115 117.786 122.117C127.795 112.096 128.097 111.661 119.713 119.338C107.29 130.712 99.8531 135.605 86.3121 141.307C74.6849 146.206 69.8242 147.11 75.9716 143.232C78.111 141.883 78.6804 141.149 77.2366 141.602C61.8005 146.434 53.8747 146.69 67.8856 141.904C73.9598 139.83 77.0389 137.378 82.648 130.142C103.748 102.928 114.454 89.7376 121.647 82.0928C131.418 71.7072 147.935 60.1472 158.428 56.3472C168.546 52.6816 169.59 51.4624 161.229 53.072C135.801 57.9696 127.466 64.176 94.1461 103.024C84.8962 113.81 70.8356 125.051 68.981 123.144C67.4655 121.586 79.5828 99.4304 86.1254 91.8C90.0867 87.1792 92.6586 83.4 91.8418 83.4C91.0249 83.4 89.5655 84.3792 88.5993 85.576C86.3681 88.3408 79.1503 87.0384 77.8822 83.6432C77.1603 81.7088 76.471 82.232 74.968 85.8544L72.9998 90.6L72.9298 85.6C72.824 78.0768 71.0876 70.5488 69.6656 71.4528C68.9732 71.8928 67.9867 71.552 67.4717 70.696C66.9567 69.84 65.5284 69.5376 64.2946 70.024C62.9363 70.56 58.2546 67.2224 52.4153 61.5552C47.1144 56.4096 43.2215 53.4608 43.766 55C44.3106 56.5392 44.3915 57.8 43.9481 57.8C42.3082 57.8 38.63 46.5392 38.6067 41.4512C38.5896 37.8624 38.1555 36.8928 37.2328 38.3904C36.2122 40.0464 32.9899 37.5664 24.031 28.2336C17.5134 21.4432 12.1798 15.0192 12.1798 13.9568C12.1798 11.8816 2.69189 1.79998 0.737677 1.79998C0.0873114 1.79998 0.821691 4.02398 2.3667 6.74078ZM411.037 52.7424C406.956 57.5472 400.464 62.52 393.373 66.2704C381.256 72.68 380.935 73.6384 392.233 69.68C400.347 66.8368 412.537 56.5584 416.027 49.616C417.305 47.0768 418.156 45.032 417.921 45.072C417.684 45.112 414.586 48.5632 411.037 52.7424ZM1382.05 46.952C1364.9 57.8912 1345.56 84.7904 1326.66 123.984L1320.02 137.752L1275.03 138.176L1230.03 138.6L1225.01 152.2C1222.25 159.68 1219.5 167.408 1218.9 169.374L1217.81 172.95L1261.12 173.374L1304.44 173.8L1277.17 241.245C1246.94 315.992 1247.22 315.496 1220.17 343.272C1201.89 362.042 1176.1 384.291 1179.51 378.36C1180.93 375.878 1256.9 186.323 1256.9 185.251C1256.9 184.674 1239.92 184.211 1219.17 184.226L1181.44 184.25L1162.18 232.626L1142.92 281L1127.74 301.805C1103.51 335.019 1085.59 353.373 1074.64 356.198C1072.03 356.872 1069.51 356.112 1066.62 353.774C1063.1 350.926 1062.41 349.123 1062.41 342.774C1062.41 331.438 1064.97 324.037 1093.65 252.512C1108.13 216.394 1119.98 186.234 1119.98 185.493C1119.98 184.75 1103.04 184.336 1082.33 184.571L1044.68 185L1020.82 244.118C995.07 307.928 994.025 309.851 972.169 333.606C956.567 350.565 949.939 355.4 942.294 355.4C936.867 355.4 935.991 354.827 934.023 349.981C930.992 342.523 932.953 331.398 941.138 309.61C944.736 300.035 950.107 285.752 953.072 277.874C966.772 241.485 965.395 215.48 948.868 198.485C938.352 187.672 927.288 183.774 909.067 184.466C896.515 184.941 893.71 185.645 883.394 190.899C869.796 197.827 853.756 211.434 840.696 227.117C835.561 233.283 831.175 238.141 830.951 237.91C830.726 237.678 835.101 226.106 840.676 212.192C846.249 198.277 850.809 186.274 850.809 185.518C850.809 184.762 833.837 184.336 813.094 184.571L775.379 185L751.709 243.822C726.132 307.39 724.649 310.114 702.625 333.976C691.126 346.435 682.714 353.027 676.237 354.653C672.971 355.472 671.154 354.798 668.069 351.626C659.653 342.971 661.934 334.635 695.824 250.243C710.039 214.846 721.669 185.147 721.669 184.243C721.669 181.662 647.546 182.014 646.541 184.6C646.113 185.701 633.687 216.48 618.926 253C584.486 338.214 585.393 335.811 582.32 350.018C575.445 381.792 584.789 406.051 608.01 416.714C617.725 421.174 637.492 422.205 648.757 418.837C659.088 415.749 674.025 406.035 685.286 395.083C689.893 390.602 693.663 387.294 693.663 387.731C693.663 388.17 690.534 396.206 686.712 405.592L679.758 422.656L717.949 422.227L756.14 421.8L763.568 403.4C790.728 336.114 814.056 295.382 840.156 269.672C854.497 255.546 861.646 251.078 868.923 251.694C882.775 252.866 881.418 266.589 862.67 314.949C849.561 348.758 846.854 360.197 848.163 376.234C849.767 395.912 858.223 409.437 873.864 417.336C881.843 421.365 884.304 421.8 899.123 421.8C914.92 421.8 915.981 421.576 927.19 415.878C940.642 409.042 958.636 393.754 969.835 379.645L977.615 369.845L978.55 379.022C980.342 396.597 988.761 409.267 1004.07 417.422C1014.28 422.867 1034.35 424.238 1047.28 420.374C1059.76 416.642 1077.15 403.99 1092.33 387.586L1105.51 373.338L1096.7 395.168L1087.88 417L1078.65 418.803C1073.57 419.795 1061.01 422.224 1050.74 424.2C1016.05 430.877 987.8 444.23 973.585 460.664C945.261 493.41 954.385 537.824 993.283 556.557C1001.9 560.704 1003.86 560.998 1022.74 560.981C1039.86 560.965 1044.51 560.397 1053.08 557.272C1090.06 543.779 1120.85 510.056 1148.13 453.142C1157.29 434.032 1158.6 432.117 1164.32 429.49C1179.11 422.698 1197.75 407.888 1215.5 388.842L1233.56 369.454V376.542C1233.56 392.734 1243.82 409.221 1259.04 417.475C1266.31 421.419 1268.53 421.8 1284.21 421.8C1300.98 421.8 1301.7 421.65 1313.35 415.726C1327.7 408.437 1346.16 391.138 1364.16 368.128L1376.29 352.619L1377.19 362.507C1379.81 391.43 1394.86 413.717 1416.14 420.216C1426.21 423.293 1446.68 423.267 1458.27 420.165C1480.36 414.248 1510.42 393.408 1529.31 370.914C1538.32 360.195 1539.98 358.931 1546.3 358.013C1554.19 356.866 1570.96 349.168 1578.58 343.2C1581.36 341.021 1583.63 339.454 1583.62 339.718C1583.61 339.984 1582.57 344.16 1581.3 349C1578.26 360.667 1578.32 381.659 1581.42 391.026C1584.64 400.739 1594.52 412.09 1604.45 417.475C1611.72 421.419 1613.94 421.8 1629.62 421.8C1646.41 421.8 1647.09 421.658 1658.85 415.682C1667.77 411.147 1674.71 405.803 1685.65 395.054C1693.77 387.075 1700.56 380.829 1700.76 381.173C1700.95 381.518 1702.77 385.2 1704.8 389.357C1715.3 410.829 1742.24 425.8 1770.39 425.8C1787.7 425.8 1798.95 423.195 1814.69 415.542C1844.84 400.88 1873.85 370.018 1915.85 307.898C1927.32 290.944 1928.85 287.886 1927.6 284.507C1926.05 280.314 1918.91 273.8 1915.86 273.8C1914.83 273.8 1909.15 280.099 1903.24 287.8C1897.32 295.501 1887.64 307.56 1881.72 314.6C1875.8 321.64 1870.55 327.89 1870.05 328.49C1869.55 329.088 1868.98 324.331 1868.77 317.917C1868.26 301.962 1862.25 281.774 1851.67 260.418C1844.84 246.635 1842.7 240.579 1842.21 233.674C1841.32 221.083 1845.7 212.562 1855.53 207.758C1861.26 204.955 1863.13 203.04 1864.33 198.734C1865.77 193.55 1865.52 192.966 1859.37 187.355C1851.31 180.002 1841.78 177.117 1829.02 178.17C1809.2 179.806 1795.77 191.301 1780.17 219.994C1754.06 267.994 1737.74 292.824 1729.39 297.269C1717.73 303.467 1700.33 326.198 1700.33 335.226C1700.33 338.614 1683.55 353.438 1677.32 355.552C1669.69 358.144 1663.95 353.666 1663.29 344.597C1662.38 332.067 1664.67 325.773 1718.14 193.8L1726.24 173.8L1770.73 173.376L1815.21 172.952L1819.44 161.376C1821.77 155.01 1824.63 147.373 1825.79 144.405C1826.96 141.437 1827.91 138.738 1827.91 138.405C1827.91 138.072 1809.66 137.8 1787.36 137.8H1746.81L1753.42 128.107C1763.08 113.952 1776.7 99.1968 1786.59 92.1968C1791.35 88.8256 1795.24 85.5952 1795.24 85.016C1795.24 84.4368 1792.87 80.5408 1789.98 76.3584C1776.37 56.672 1740.99 39.664 1728.2 46.6624C1712.1 55.4768 1691.27 84.1792 1672.07 123.984L1665.43 137.752L1620.44 138.176L1575.44 138.6L1570.42 152.2C1567.66 159.68 1564.91 167.408 1564.31 169.374L1563.22 172.95L1606.54 173.374L1649.86 173.8L1628.03 227.986L1606.2 282.171L1593.66 294.386C1580.26 307.44 1563.4 318.549 1565.65 312.843C1574.64 290.029 1578.97 269.134 1578.97 248.603C1578.97 214.658 1567.73 192.12 1545.07 180.659C1535.11 175.616 1533.94 175.403 1516.76 175.474C1497.05 175.554 1487.05 177.888 1470.83 186.195C1435.77 204.16 1403.77 243.856 1388.39 288.482C1385.09 298.07 1381.36 304.381 1371.39 317.282C1356.35 336.741 1339.71 352.906 1332.04 355.507C1324.27 358.146 1318.55 353.741 1317.89 344.597C1316.97 332.067 1319.27 325.773 1372.73 193.8L1380.83 173.8L1425.32 173.376L1469.8 172.952L1474.03 161.376C1476.36 155.01 1479.22 147.373 1480.38 144.405C1481.55 141.437 1482.5 138.738 1482.5 138.405C1482.5 138.072 1464.25 137.8 1441.95 137.8H1401.4L1408.01 128.107C1417.67 113.952 1431.29 99.1968 1441.18 92.1968C1445.94 88.8256 1449.83 85.5952 1449.83 85.016C1449.83 81.9152 1438.21 67.8944 1430.96 62.24C1413.93 48.9632 1390.42 41.6144 1382.05 46.952ZM196.784 59.552C195.144 75.6864 195.673 94.6272 198.099 106.6C200.464 118.272 206.681 136.2 208.363 136.2C211.185 136.2 212.1 103.739 209.717 88.2C208.114 77.752 201.039 53.3136 198.925 50.9168C198.301 50.2112 197.338 54.096 196.784 59.552ZM423.197 62.5072C411.335 77.6864 384.965 93.2816 360.323 99.6896C349.502 102.502 344.215 102.912 326.482 102.307L305.467 101.59L317.914 103.896C324.76 105.165 330.622 106.44 330.943 106.733C331.263 107.024 330.061 109.814 328.273 112.931C326.484 116.05 325.566 118.6 326.232 118.6C327.716 118.6 335.103 108.6 334.672 107.173C334.185 105.558 343.291 104.619 345.495 106.058C346.852 106.944 346.402 107.358 344.067 107.376C339.55 107.408 338.127 110.014 342.05 111.069C343.753 111.526 344.755 111.248 344.274 110.451C343.795 109.653 344.408 109 345.638 109C346.868 109 348.744 107.92 349.81 106.6C350.876 105.28 353.236 104.195 355.056 104.189C359.162 104.174 377.517 97.7776 387.929 92.7328C403.183 85.3408 422.598 69.4096 426.985 60.6832C430.069 54.5504 429.019 55.056 423.197 62.5072ZM131.134 67.3152C126.159 70.7888 121.479 74.7488 120.735 76.1152C118.637 79.968 120.326 79.112 127.668 72.6C131.388 69.3008 136.157 65.3776 138.265 63.8832C140.372 62.3904 141.666 61.1296 141.14 61.0832C140.615 61.0384 136.112 63.8416 131.134 67.3152ZM262.211 67.3456C251.382 69.5008 252.605 71.4992 266.154 73.7856C278.119 75.8048 315 77.0656 316.514 75.5072C317.796 74.1872 306.976 70.3424 295.605 68.0752C283.5 65.6624 271.932 65.4096 262.211 67.3456ZM378.594 98.808C375.171 100.038 370.97 101.664 369.258 102.422C367.547 103.181 364.182 104.614 361.781 105.608C359.379 106.602 357.826 108.099 358.33 108.938C359.374 110.675 364.026 109.282 365.734 106.717C366.472 105.608 366.886 105.797 366.901 107.248C366.921 109.149 367.345 109.136 369.647 107.168C371.144 105.888 375.054 103.437 378.334 101.72C381.614 100.005 384.631 98.0592 385.038 97.4C385.446 96.7408 385.563 96.2832 385.298 96.3872C385.034 96.4896 382.017 97.5792 378.594 98.808ZM401.932 105.336C378.622 122.037 354.174 128.336 325.693 124.979C317.136 123.971 306.29 121.816 301.591 120.19C289.355 115.96 290.21 117.419 303.243 123.016C309.521 125.71 313.467 128.194 312.266 128.694C311.094 129.184 312.518 129.16 315.432 128.642C319.095 127.992 320.403 128.246 319.669 129.469C317.707 132.731 335.681 134.621 350.834 132.746C370.99 130.25 388.077 122.098 405.044 106.88C413.424 99.3632 411.56 98.4384 401.932 105.336ZM519.653 101.139C514.229 101.853 506.442 103.581 502.35 104.979C495.663 107.262 478.595 116.818 475.337 120.102C474.633 120.811 478.553 128.258 484.046 136.648C499.976 160.976 517.954 201.437 515.617 207.698C515.152 208.946 515.41 209.56 516.191 209.064C516.972 208.566 517.909 209.43 518.273 210.981C518.707 212.83 520.63 210.077 523.86 202.979C530.534 188.323 562.968 107.845 562.968 105.946C562.968 102.381 534.349 99.2064 519.653 101.139ZM167.689 106C163.575 116.213 149.989 135.651 139.655 146.109C126.835 159.082 120.537 163.488 104.563 170.659C91.0218 176.739 91.1556 178.094 104.781 172.853C116.347 168.403 134.361 155.85 143.328 145.992C153.637 134.658 172.506 103.738 170.421 101.594C170.049 101.211 168.82 103.194 167.689 106ZM362.033 115.867L358.367 117.331L361.916 119.032C364.603 120.32 366.679 120.142 370.453 118.304L375.442 115.875L370.57 115.139C367.891 114.734 364.049 115.062 362.033 115.867ZM338.119 118.528C338.853 120.909 338.439 121.8 336.597 121.8C335.206 121.8 334.5 121.08 335.029 120.2C335.558 119.32 334.921 118.6 333.613 118.6C332.139 118.6 331.578 119.512 332.132 121C333.39 124.373 339.447 123.986 343.802 120.253C345.824 118.523 347.126 117.024 346.698 116.922C338.78 115.042 337.137 115.349 338.119 118.528ZM468.058 128.946C468.058 146.821 454.299 159.899 437.385 158.104C431.202 157.448 426.733 155.598 419.755 150.806C411.112 144.87 410.636 144.718 413.454 148.787L416.5 153.187L409.581 157.074C405.554 159.336 402.976 161.805 403.415 162.981C403.829 164.091 403.054 165 401.693 165C397.462 165 402.161 169.306 411.037 173.565C421.115 178.398 431.929 180.05 439.602 177.925C449.145 175.282 459.925 167.278 465.063 159.021C468.712 153.158 469.564 152.414 468.763 155.8C468.1 158.598 468.349 160.2 469.446 160.2C470.393 160.2 471.17 158.76 471.17 157C471.17 155.24 471.694 153.802 472.337 153.803C474.124 153.808 474.35 163.008 472.671 167.546C471.851 169.766 471.791 171.194 472.539 170.718C474.719 169.333 477.393 156.31 477.392 147.091C477.39 138.246 472.797 123.158 469.793 122.128C468.683 121.747 468.058 124.206 468.058 128.946ZM282.172 169.133C279.421 195.549 288.229 225.837 304.003 244.2L309.501 250.6L304.062 242.522C298.597 234.405 291.638 219.488 292.77 218.322C293.105 217.979 294.258 219.88 295.333 222.549C297.258 227.326 301.2 229.67 299.458 225C298.966 223.68 299.167 222.6 299.903 222.6C300.64 222.6 301.722 223.859 302.304 225.4C303.273 227.958 303.604 227.898 306.143 224.698C308.322 221.952 309.356 221.606 310.925 223.098C312.512 224.606 312.719 224.421 311.919 222.2C311.365 220.659 310.481 218.141 309.955 216.6C309.43 215.059 311.838 218.12 315.306 223.4C318.776 228.68 323.806 235.52 326.485 238.6C330.692 243.438 330.582 243.11 325.675 236.2C314.771 220.846 303.133 189.816 303.133 176.094C303.133 172.59 301.541 170.798 294.575 166.458C289.869 163.523 286.018 160.557 286.018 159.862C286.018 159.168 285.399 158.6 284.642 158.6C283.888 158.6 282.775 163.339 282.172 169.133ZM202.281 165.803C199.815 171.37 192.358 175.621 182.835 176.893C171.382 178.422 164.297 183.774 158.976 194.918C155.204 202.819 154.576 205.984 154.755 216.2C154.963 228.006 157.986 238.738 161.787 241.154C163.086 241.979 163.292 241.422 162.48 239.262C161.846 237.578 160.981 234.04 160.556 231.4C160.132 228.76 159.435 224.845 159.007 222.698C158.304 219.173 158.91 219.443 165.297 225.498C171.303 231.19 173.369 232.198 179.016 232.194C187.192 232.187 194.735 227.712 198.206 220.81C201.528 214.202 200.618 200.018 196.576 195.424C195.015 193.651 194.391 192.2 195.189 192.2C197.795 192.2 203.745 197.266 205.256 200.771C206.546 203.765 206.653 203.613 206.096 199.57C205.612 196.061 206.451 194.061 209.563 191.306C214.081 187.307 212.987 183.968 208.173 187.061C204.686 189.299 200.443 189.622 200.443 187.648C200.443 186.904 201.839 184.997 203.546 183.408C207.664 179.576 210.001 170.611 208.173 165.664C206.345 160.722 204.514 160.765 202.281 165.803ZM309.389 176.798C309.454 189.942 322.708 218.97 332.953 228.41C335.553 230.806 335.387 230.163 332.116 225.181L328.033 218.962L331.92 215.258C334.058 213.219 335.83 209.899 335.858 207.877L335.911 204.2L339.108 208.152L342.307 212.106L338.279 213.486C333.185 215.232 333.244 216.742 338.786 226.678C343.435 235.013 349.318 241.714 347.345 236.426C346.801 234.966 347.129 233.8 348.087 233.8C349.035 233.8 349.81 232.797 349.81 231.571C349.81 228.365 354.144 227.118 358.09 229.19C359.954 230.17 357.533 226.747 352.711 221.586C340.957 209.002 330.688 194.205 326.496 183.803C323.459 176.269 322.245 174.963 316.205 172.73L309.356 170.197L309.389 176.798ZM329.583 174.861C329.583 180.074 340.61 200.102 348.146 208.579C357.779 219.413 375.701 232.158 387.904 236.853C397.478 240.536 404.868 241.408 397.265 237.955C394.697 236.79 391.197 234.174 389.485 232.144C387.774 230.112 387.232 228.966 388.282 229.597C389.331 230.227 392.132 231.042 394.506 231.408C396.879 231.774 401.621 233.15 405.044 234.467C412.167 237.205 428.6 237.747 434.505 235.44C438.894 233.723 439.904 230.6 436.07 230.6C434.737 230.6 434.059 229.912 434.564 229.07C436.182 226.378 431.183 216.68 424.787 210.102C421.043 206.253 412.506 200.747 403.256 196.216C394.827 192.088 384.779 186.12 380.928 182.954C376.521 179.333 375.224 178.683 377.427 181.203C381.88 186.296 381.824 187.115 377.04 186.83C374.9 186.704 373.15 185.73 373.15 184.664C373.148 183.592 371.241 182.779 368.87 182.843C361.115 183.051 337.597 178.032 333.552 175.306C330.366 173.16 329.583 173.072 329.583 174.861ZM173.133 193.894C170.01 197.442 170.967 200.794 176.042 204.085C182.042 207.976 188.157 197.018 182.401 192.69C178.555 189.798 176.503 190.064 173.133 193.894ZM167.251 217.267C165.165 219.411 166.291 222.6 169.136 222.6C172.381 222.6 176.097 218.896 174.499 217.253C173.17 215.886 168.585 215.896 167.251 217.267ZM508.74 227.101C505.869 229.39 498.868 232.555 493.181 234.133L482.839 237.002L490.619 236.485C494.897 236.2 499.728 235.362 501.354 234.621C503.993 233.418 504.189 233.768 503.182 237.893L502.054 242.514L505.448 239.357C508.731 236.304 515.465 224.382 514.455 223.413C514.181 223.15 511.609 224.81 508.74 227.101ZM1517.47 233.645C1488.94 250.469 1457.44 309.475 1459.48 342.275C1460.05 351.6 1460.63 353.094 1465.31 357.397C1469.97 361.672 1471.25 362.067 1477.55 361.179C1485.12 360.112 1494.9 354.307 1505.42 344.645L1511.99 338.6L1509.53 328.2C1502.23 297.446 1522.33 261.088 1546.68 261.01C1548.98 261.002 1549.41 259.469 1549.41 251.32C1549.41 240.907 1546.59 233.33 1541.71 230.648C1536.01 227.507 1525.72 228.779 1517.47 233.645ZM1779.63 262.947C1775.94 269.357 1770.65 278.118 1767.85 282.419L1762.77 290.24L1769.19 293.619C1777.05 297.76 1781.75 304.086 1781.75 310.518C1781.75 317.726 1777.5 321.754 1771.02 320.674C1764.32 319.555 1758.42 323.331 1755.45 330.626C1752.6 337.658 1754.09 344.834 1759.57 350.477C1769.24 360.414 1781.97 357.971 1796.1 343.47C1803.65 335.726 1806.1 331.894 1808.42 324.237C1812.24 311.6 1810.32 298.955 1802.49 285.213C1799.44 279.872 1794.73 270.261 1792.02 263.851C1789.3 257.443 1786.91 251.997 1786.7 251.747C1786.49 251.498 1783.31 256.538 1779.63 262.947ZM37.0741 286.672C37.0741 288.472 35.3238 291.746 33.1844 293.946C31.045 296.146 29.2946 298.272 29.2946 298.672C29.2946 299.072 31.6363 299.4 34.4991 299.4C37.7276 299.4 40.7725 300.614 42.5198 302.6C46.2337 306.821 47.6916 306.645 46.8421 302.08C46.3877 299.635 47.5749 296.621 50.3086 293.28L54.466 288.2H49.0717C46.1061 288.2 42.8076 287.12 41.7418 285.8C39.033 282.445 37.0741 282.811 37.0741 286.672ZM104.289 285.32C103.262 286.376 102.422 289.272 102.422 291.754C102.422 295.07 103.502 296.774 106.494 298.176C110.075 299.854 110.911 299.648 113.417 296.464C116.458 292.603 115.96 288.664 112.02 285.4C108.989 282.888 106.677 282.864 104.289 285.32ZM503.844 286.566C506.618 288.45 516.275 288.669 518.967 286.91C520.011 286.229 516.51 285.515 511.187 285.326C504.357 285.083 502.196 285.448 503.844 286.566ZM131.18 306.914C125.768 320.229 116.948 325.846 103.685 324.421C94.1165 323.392 91.4295 325.422 98.6333 328.24C111.305 333.194 127.223 326.418 133.316 313.477C137.011 305.626 137.383 303.254 135.142 301.83C134.313 301.302 132.529 303.59 131.18 306.914ZM359.182 308.262C347.261 311.701 339.051 317.053 329.9 327.347C318.907 339.718 315.081 350.682 315.925 367.4C316.409 376.998 317.671 382.709 320.97 390.234C325.916 401.512 327.725 402.658 324.155 392.248C321.219 383.691 321.215 382.469 324.137 383.621C325.479 384.15 326.471 383.653 326.471 382.451C326.471 380.824 326.887 380.787 328.338 382.28C330.985 385.002 332.69 384.659 332.718 381.4C332.735 379.525 333.131 379.227 333.918 380.499C335.856 383.637 343.249 385.965 344.145 383.72C344.64 382.483 346.111 383.222 348.283 385.8C351.045 389.077 351.451 389.221 350.522 386.6C349.9 384.84 348.372 380.52 347.127 377C345.883 373.48 344.878 365.416 344.896 359.08C344.946 340.97 352.116 327.782 366.699 318.971C372.965 315.186 375.736 314.576 387.52 314.39C394.996 314.272 400.736 314.803 400.275 315.57C399.813 316.336 400.638 316.49 402.107 315.91C404.061 315.138 404.436 315.424 403.504 316.976C402.639 318.413 402.829 318.714 404.094 317.91C405.155 317.235 408.438 318.616 411.724 321.12L417.491 325.515L412.229 319.763C401.431 307.96 377.908 302.861 359.182 308.262ZM425.247 322.21C437.019 334.178 440.959 339.434 445.448 349.152C452.711 364.878 453.915 374.846 449.73 384.578C446.966 391.002 445.319 392.506 436.094 397.034C427.804 401.102 422.791 402.39 412.211 403.168C399.987 404.069 399.499 404.226 406.6 404.978C423.724 406.792 443.669 399.381 450.584 388.635C454.071 383.218 454.386 381.427 453.692 371.003C453.193 363.509 451.547 356.256 449.043 350.522C446.503 344.701 445.389 339.741 445.812 336.122C446.398 331.09 446.255 330.854 444.203 333.466C442.103 336.138 441.332 335.666 432.832 326.482C427.818 321.064 420.77 314.541 417.169 311.987C412.723 308.83 415.313 312.109 425.247 322.21ZM443.48 319.382C449.215 325.416 456.031 334.45 458.626 339.458C464.07 349.96 468.682 366.859 467.313 371.293C466.798 372.963 467.207 374.859 468.221 375.504C469.612 376.389 469.801 374.242 468.982 366.803C467.585 354.109 464.943 346.563 457.868 335.077C451.047 324 447.54 319.902 439.274 313.346C434.955 309.922 436.241 311.768 443.48 319.382ZM373.424 344.179C369.896 346.806 365.59 351.818 363.855 355.315C359.105 364.891 360.097 365.336 365.32 355.971C367.844 351.445 372.389 346.166 375.418 344.24C380.284 341.149 382.078 339.4 380.383 339.4C380.084 339.4 376.952 341.55 373.424 344.179ZM130.428 375.358C130.428 376.656 128.328 378.835 125.76 380.2C120.052 383.235 119.728 385.8 125.052 385.8C127.231 385.8 130.764 387.6 132.903 389.8C137.596 394.626 138.208 394.723 138.208 390.642C138.208 388.706 140.165 386.422 143.264 384.746L148.321 382.01L142.875 380.662C139.88 379.923 136.379 379.074 135.096 378.776C133.812 378.48 132.967 377.058 133.219 375.618C133.47 374.178 132.946 373 132.052 373C131.159 373 130.428 374.061 130.428 375.358ZM145.967 402.64C143.999 406.421 144.206 406.974 149.205 411.29C154.056 415.475 154.59 415.621 155.039 412.862C155.313 411.194 156.964 408.8 158.71 407.542C162.545 404.779 161.19 401.8 156.1 401.8C154.062 401.8 151.962 401.08 151.433 400.2C149.869 397.598 148.203 398.342 145.967 402.64ZM281.529 425.81C278.774 429.336 273.89 433.6 270.674 435.288C262.745 439.446 247.032 443.494 243.01 442.413C240.136 441.64 239.605 442.411 238.691 448.68C237.517 456.725 240.519 472.216 242.585 468.779C243.276 467.632 244.303 467.168 244.868 467.75C245.434 468.331 247.24 467.518 248.885 465.944C250.529 464.368 254.612 462.237 257.96 461.205C261.729 460.045 264.434 458.077 265.062 456.045C265.619 454.237 266.33 453.021 266.641 453.341C266.952 453.661 266.219 456.774 265.012 460.261C263.804 463.747 262.837 468.04 262.861 469.8C262.886 471.56 264.156 469.4 265.684 465C269.427 454.213 278.89 433.61 283.698 425.778C288.689 417.648 287.899 417.659 281.529 425.81ZM286.951 440.022C284.317 443.016 284.331 443.216 287.281 444.838C291.652 447.245 295.428 442.792 292.003 439.27C289.968 437.178 289.379 437.266 286.951 440.022ZM1052.78 466.517C1039.88 472.032 1026.77 481.437 1025.66 485.982C1024.64 490.195 1027.25 494.6 1030.78 494.6C1037.17 494.6 1051.74 482.702 1059.43 471.203C1066.22 461.054 1065.97 460.88 1052.78 466.517Z" fill="#624CF5"/>
</svg>
